<?xml version="1.0" encoding="utf-8"?>
<!-- Generator: Adobe Illustrator 23.1.1, SVG Export Plug-In . SVG Version: 6.00 Build 0)  -->
<svg version="1.1" id="Layer_1" xmlns="http://www.w3.org/2000/svg" xmlns:xlink="http://www.w3.org/1999/xlink" x="0px" y="0px"
	 viewBox="0 0 16 16" style="enable-background:new 0 0 16 16;" xml:space="preserve">
<style type="text/css">
	.st0{fill:#111111;}
</style>
<path class="st0" d="M8,3.69c-1.14,0-2.24,0.45-3.05,1.26C4.15,5.76,3.69,6.86,3.69,8c0,1.14,0.45,2.24,1.26,3.05
	c0.81,0.81,1.9,1.26,3.05,1.26c1.14,0,2.24-0.45,3.05-1.26c0.81-0.81,1.26-1.9,1.26-3.05c0-1.14-0.45-2.24-1.26-3.05
	C10.24,4.15,9.14,3.69,8,3.69L8,3.69z M8,10.8c-0.74,0-1.45-0.29-1.98-0.82C5.5,9.45,5.2,8.74,5.2,8c0-0.74,0.29-1.45,0.82-1.98
	C6.55,5.5,7.26,5.2,8,5.2S9.45,5.5,9.98,6.02C10.5,6.55,10.8,7.26,10.8,8c0,0.74-0.29,1.45-0.82,1.98C9.45,10.5,8.74,10.8,8,10.8
	L8,10.8z"/>
<path class="st0" d="M12.31,4.92c0.68,0,1.23-0.55,1.23-1.23c0-0.68-0.55-1.23-1.23-1.23c-0.68,0-1.23,0.55-1.23,1.23
	C11.08,4.37,11.63,4.92,12.31,4.92z"/>
<path class="st0" d="M15.58,2.76c-0.21-0.53-0.52-1.01-0.92-1.41c-0.4-0.4-0.89-0.72-1.42-0.92c-0.62-0.23-1.28-0.36-1.94-0.37
	C10.44,0.01,10.17,0,8,0C5.83,0,5.55,0,4.7,0.05C4.04,0.06,3.38,0.19,2.76,0.42c-0.53,0.2-1.01,0.52-1.42,0.92
	c-0.4,0.4-0.72,0.88-0.92,1.41C0.19,3.38,0.06,4.03,0.05,4.69C0.01,5.55,0,5.82,0,7.99c0,2.17,0,2.44,0.05,3.29
	c0.01,0.66,0.14,1.32,0.37,1.94c0.21,0.53,0.52,1.01,0.92,1.41c0.4,0.4,0.89,0.72,1.42,0.92c0.62,0.24,1.28,0.38,1.94,0.4
	C5.56,15.99,5.83,16,8,16s2.45,0,3.3-0.05c0.66-0.01,1.32-0.14,1.94-0.37c0.53-0.21,1.01-0.52,1.42-0.92
	c0.4-0.4,0.72-0.88,0.92-1.41c0.23-0.62,0.36-1.28,0.37-1.94C15.99,10.45,16,10.18,16,8.01c0-2.17,0-2.44-0.05-3.29
	C15.94,4.05,15.81,3.38,15.58,2.76L15.58,2.76z M14.49,11.21c-0.01,0.51-0.1,1.02-0.28,1.5c-0.13,0.35-0.34,0.66-0.6,0.92
	c-0.26,0.26-0.58,0.47-0.92,0.6c-0.48,0.18-0.98,0.27-1.48,0.28c-0.84,0.04-1.08,0.05-3.25,0.05c-2.17,0-2.39,0-3.25-0.05
	c-0.51-0.01-1.01-0.1-1.48-0.28c-0.35-0.13-0.66-0.34-0.93-0.6c-0.26-0.26-0.47-0.58-0.6-0.92c-0.17-0.47-0.27-0.98-0.28-1.48
	c-0.04-0.84-0.05-1.08-0.05-3.24c0-2.16,0-2.38,0.05-3.24c0.01-0.51,0.1-1.02,0.28-1.5C1.98,2.55,2.53,2,3.24,1.73
	c0.47-0.18,0.98-0.27,1.48-0.28C5.56,1.41,5.8,1.4,7.97,1.4c2.17,0,2.39,0,3.25,0.05c0.51,0.01,1.01,0.1,1.48,0.28
	c0.35,0.13,0.66,0.34,0.92,0.6c0.26,0.26,0.47,0.57,0.6,0.92c0.17,0.47,0.27,0.98,0.28,1.48c0.04,0.84,0.05,1.08,0.05,3.24
	C14.54,10.13,14.54,10.36,14.49,11.21L14.49,11.21L14.49,11.21z"/>
</svg>
