<?xml version="1.0" encoding="utf-8"?>
<!-- Generator: Adobe Illustrator 23.1.1, SVG Export Plug-In . SVG Version: 6.00 Build 0)  -->
<svg version="1.1" id="Layer_1" xmlns="http://www.w3.org/2000/svg" xmlns:xlink="http://www.w3.org/1999/xlink" x="0px" y="0px"
	 viewBox="0 0 16 16" style="enable-background:new 0 0 16 16;" xml:space="preserve">
<style type="text/css">
	.st0{fill:#111111;}
</style>
<path class="st0" d="M13.63,13.64h-2.37V9.93c0-0.89-0.02-2.03-1.23-2.03c-1.23,0-1.42,0.96-1.42,1.96v3.78H6.23V6h2.28v1.04h0.03
	c0.46-0.79,1.33-1.27,2.25-1.23c2.4,0,2.85,1.58,2.85,3.64L13.63,13.64z M3.56,4.96c-0.76,0-1.38-0.62-1.38-1.38
	c0-0.76,0.62-1.38,1.38-1.38s1.38,0.62,1.38,1.38c0,0,0,0,0,0C4.94,4.34,4.32,4.96,3.56,4.96L3.56,4.96 M4.74,13.64H2.37V6h2.37
	L4.74,13.64z M14.81,0.01H1.18C0.54,0,0.01,0.52,0,1.16c0,0,0,0,0,0v13.69c0.01,0.64,0.54,1.16,1.18,1.15h13.63
	c0.65,0.01,1.18-0.51,1.19-1.15V1.16C15.99,0.51,15.46,0,14.81,0.01"/>
</svg>
