<?xml version="1.0" encoding="utf-8"?>
<!-- Generator: Adobe Illustrator 23.1.1, SVG Export Plug-In . SVG Version: 6.00 Build 0)  -->
<svg version="1.1" id="Layer_1" xmlns="http://www.w3.org/2000/svg" xmlns:xlink="http://www.w3.org/1999/xlink" x="0px" y="0px"
	 viewBox="0 0 16 16" style="enable-background:new 0 0 16 16;" xml:space="preserve">
<style type="text/css">
	.st0{fill:#111111;}
</style>
<path class="st0" d="M5.03,14.5c1.23,0.01,2.45-0.24,3.58-0.72c1.14-0.48,2.17-1.2,3.04-2.1c0.87-0.9,1.56-1.97,2.02-3.15
	c0.47-1.18,0.7-2.44,0.7-3.72V4.36C15.01,3.87,15.56,3.28,16,2.6c-0.6,0.27-1.23,0.45-1.88,0.54c0.69-0.43,1.21-1.1,1.45-1.89
	c-0.64,0.4-1.35,0.68-2.08,0.83C13,1.53,12.34,1.17,11.63,1.05s-1.45,0-2.08,0.36C8.91,1.76,8.4,2.32,8.1,3S7.73,4.45,7.89,5.18
	c-1.3-0.07-2.58-0.42-3.75-1.03C2.98,3.54,1.95,2.68,1.13,1.62C0.71,2.37,0.59,3.26,0.78,4.1c0.19,0.84,0.68,1.58,1.37,2.06
	C1.64,6.13,1.14,5.99,0.69,5.73v0.04c0,0.78,0.25,1.54,0.72,2.15c0.47,0.61,1.13,1.04,1.86,1.21C2.8,9.26,2.3,9.28,1.82,9.19
	c0.21,0.67,0.62,1.25,1.16,1.67c0.54,0.42,1.2,0.65,1.88,0.67c-1.16,0.97-2.59,1.5-4.08,1.51C0.52,13.03,0.26,13,0,12.97
	c1.5,0.99,3.25,1.52,5.03,1.51"/>
</svg>
