<?xml version="1.0" encoding="utf-8"?>
<!-- Generator: Adobe Illustrator 23.1.1, SVG Export Plug-In . SVG Version: 6.00 Build 0)  -->
<svg version="1.1" id="Layer_1" xmlns="http://www.w3.org/2000/svg" xmlns:xlink="http://www.w3.org/1999/xlink" x="0px" y="0px"
	 viewBox="0 0 64 64" style="enable-background:new 0 0 64 64;" xml:space="preserve">
<style type="text/css">
	.st0{fill:#383838;}
	.st1{fill:#F5F5F5;}
</style>
<rect class="st0" width="64" height="64"/>
<path class="st1" d="M33,5H19c-2.76,0-5,2.24-5,5v26c0,1.66-1.34,3-3,3H1v5h18c2.76,0,5-2.24,5-5V13c0-1.66,1.34-3,3-3h6v53h10V26h7
	c1.66,0,3,1.34,3,3v15h10V26c0-2.76-2.24-5-5-5H43V1H33C33,1,33,5,33,5z"/>
</svg>
